# xmcd CD database file
#
# Track frame offsets:
#	182
#	12285
#	21925
#	31997
#	44392
#	54182
#	64367
#	76852
#	89540
#	100910
#	113107
#	123415
#	134245
#	147400
#	159217
#	170830
#	183840
#	196350
#	209857
#	222257
#
# Disc length: 3150 seconds
#
# Revision: 1
# Processed by: cddbd v1.5.2PL0 Copyright (c) Steve Scherf et al.
# Submitted via: CDex 1.51
#
DISCID=270c4c14
DTITLE=Eddy Arnold - 40 Famous Records-The Best-1of2
DYEAR=1994
DGENRE=Country
TTITLE0=Make the World Go Away
TTITLE1=Misty Blue
TTITLE2=The Last Word in Lonesome is Me
TTITLE3=Nobody's Darlin but Mine
TTITLE4=What's He Doing in My World
TTITLE5=I Wanna Play House with You
TTITLE6=Lonely Again
TTITLE7=Then You Can Tell Me Goodbye
TTITLE8=Turn the World Around
TTITLE9=I Want to Go With You
TTITLE10=Answer Me My Love
TTITLE11=Moonlight and Roses
TTITLE12=Anytime
TTITLE13=Just Call Me Lonesome
TTITLE14=It's a Sin
TTITLE15=I Really Don't Want to Know
TTITLE16=Cattle Call
TTITLE17=Molly Darling
TTITLE18=I'll Hold You in My Heart
TTITLE19=I'm Thinking Tonight of My Blue Eyes
EXTD=YEAR: 1994
EXTT0=
EXTT1=
EXTT2=
EXTT3=
EXTT4=
EXTT5=
EXTT6=
EXTT7=
EXTT8=
EXTT9=
EXTT10=
EXTT11=
EXTT12=
EXTT13=
EXTT14=
EXTT15=
EXTT16=
EXTT17=
EXTT18=
EXTT19=
PLAYORDER=
